<svg width="24" height="24" viewBox="0 0 24 24" fill="none" xmlns="http://www.w3.org/2000/svg">
<g clip-path="url(#clip0_651_1313)">
<path d="M13.8109 15.901L13.8109 15.9011C14.1677 16.1497 14.2551 16.6405 14.0064 16.9972C13.7575 17.3539 13.2667 17.4414 12.9101 17.1925L12.9101 17.1925C11.6994 16.3482 10.2756 15.9018 8.79375 15.9018C5.61217 15.9018 2.72686 17.953 1.77956 20.8982L1.77954 20.8983C1.67226 21.2324 1.72931 21.5883 1.93608 21.872C2.14284 22.1558 2.46401 22.3191 2.815 22.3191H10.9703C11.4051 22.3191 11.7576 22.6716 11.7576 23.1064C11.7576 23.5414 11.4051 23.8939 10.9703 23.8939H2.815C1.954 23.8939 1.17068 23.4955 0.663515 22.7996C0.156347 22.1036 0.0169681 21.2358 0.280609 20.416C1.105 17.8529 3.13157 15.8398 5.63435 14.9021L5.86297 14.8164L5.68324 14.6512C4.76167 13.8039 4.18356 12.5897 4.18356 11.2427C4.18356 8.68954 6.26111 6.61215 8.81426 6.61215C10.7582 6.61215 12.4266 7.8165 13.1119 9.51908L13.1837 9.69746L13.3393 9.5844C13.8435 9.21788 14.3857 8.90573 14.9626 8.65188L14.9626 8.65186C15.0891 8.59616 15.2171 8.54377 15.346 8.49419L15.5723 8.40715L15.3934 8.24351C14.4669 7.39594 13.8856 6.17831 13.8856 4.82757C13.8856 2.27424 15.963 0.196875 18.5161 0.196875C21.0694 0.196875 23.1468 2.27425 23.1468 4.82757C23.1468 6.18381 22.5607 7.40587 21.6278 8.2538L21.4485 8.41678L21.6743 8.5046C22.3191 8.75536 22.9359 9.08318 23.5129 9.48575L23.5129 9.48577C23.8696 9.73443 23.957 10.2252 23.7083 10.5819C23.4594 10.9387 22.9688 11.0261 22.6119 10.7772C21.4012 9.93288 19.9776 9.48647 18.4956 9.48647C16.5973 9.48647 14.8253 10.2085 13.4742 11.5251L13.4339 11.5643L13.4293 11.6204C13.3318 12.8246 12.7714 13.9006 11.926 14.6691L11.7466 14.8321L11.9725 14.9199C12.6173 15.1705 13.2338 15.4984 13.8109 15.901ZM20.4847 20.3787H20.3347V20.5287V23.1064C20.3347 23.5414 19.9821 23.8939 19.5473 23.8939C19.1124 23.8939 18.7598 23.5414 18.7598 23.1064V20.5287V20.3787H18.6098H16.0321C15.5973 20.3787 15.2448 20.0262 15.2448 19.5914C15.2448 19.1564 15.5973 18.8039 16.0321 18.8039H18.6098H18.7598V18.6539V16.0761C18.7598 15.6413 19.1124 15.2888 19.5473 15.2888C19.9821 15.2888 20.3347 15.6413 20.3347 16.0761V18.6539V18.8039H20.4847H23.0624C23.4974 18.8039 23.8499 19.1564 23.8499 19.5914C23.8499 20.0261 23.4974 20.3787 23.0624 20.3787H20.4847ZM21.572 4.82757C21.572 3.14238 20.2013 1.77169 18.5161 1.77169C16.8311 1.77169 15.4602 3.14237 15.4602 4.82757C15.4602 6.51259 16.8311 7.88346 18.5161 7.88346C20.2013 7.88346 21.572 6.51258 21.572 4.82757ZM11.8701 11.2427C11.8701 9.55766 10.4995 8.18679 8.81426 8.18679C7.12906 8.18679 5.75838 9.55766 5.75838 11.2427C5.75838 12.9279 7.12906 14.2986 8.81426 14.2986C10.4995 14.2986 11.8701 12.9279 11.8701 11.2427Z" fill="#F3F2F2" stroke="#4FCBC2" stroke-width="0.3"/>
</g>
<defs>
<clipPath id="clip0_651_1313">
<rect width="24" height="24" fill="white"/>
</clipPath>
</defs>
</svg>
